<?xml version="1.0" encoding="utf-8"?>
<!-- Generator: Adobe Illustrator 27.0.0, SVG Export Plug-In . SVG Version: 6.00 Build 0)  -->
<svg version="1.1" id="레이어_1" xmlns="http://www.w3.org/2000/svg" xmlns:xlink="http://www.w3.org/1999/xlink" x="0px"
	 y="0px" viewBox="0 0 1000 630" style="enable-background:new 0 0 1000 630;" xml:space="preserve">
<style type="text/css">
	.st0{fill:#65BFC4;}
</style>
<g>
	<path class="st0" d="M176.18,384.05c6.78,0.35,12.29,1.28,16.52,2.78c4.22,1.51,8,3.94,11.34,7.31c3.69,3.71,6.22,8.41,7.59,14.09
		c1.37,5.68,2.05,14.5,2.05,26.44v125.57L68.69,380.05H-0.06v4c6.9,0.35,12.47,1.28,16.69,2.78c4.22,1.51,7.95,3.94,11.16,7.31
		c3.69,3.71,6.22,8.43,7.59,14.18c1.37,5.74,2.05,14.46,2.05,26.17v128.35c0,11.83-0.69,20.61-2.05,26.35
		c-1.37,5.74-3.9,10.47-7.59,14.17c-3.34,3.36-7.11,5.8-11.34,7.3c-4.23,1.51-9.73,2.43-16.52,2.78v4h82.32v-4
		c-6.79-0.35-12.29-1.28-16.52-2.78c-4.23-1.5-8.01-3.94-11.34-7.3c-3.69-3.71-6.22-8.41-7.59-14.09
		c-1.37-5.68-2.05-14.49-2.05-26.44V411.53l168.21,205.92H221V434.49c0-11.71,0.68-20.44,2.05-26.17c1.37-5.74,3.9-10.46,7.59-14.18
		c6.67-6.72,15.95-10.09,27.86-10.09v-4h-82.32V384.05z"/>
	<path class="st0" d="M709.31,380.05h-82.32v4c6.78,0.35,12.29,1.28,16.52,2.78c4.22,1.51,8,3.94,11.34,7.31
		c3.69,3.71,6.22,8.41,7.59,14.09c1.37,5.68,2.05,14.5,2.05,26.44v125.57L519.49,380.05h-68.75v4c6.9,0.35,12.47,1.28,16.7,2.78
		c4.22,1.51,7.95,3.94,11.16,7.31c3.69,3.71,6.22,8.43,7.59,14.18c1.37,5.74,2.05,14.46,2.05,26.17v128.35
		c0,11.83-0.69,20.61-2.05,26.35c-1.37,5.74-3.9,10.47-7.59,14.17c-3.33,3.36-7.11,5.8-11.34,7.3c-4.23,1.51-9.73,2.43-16.52,2.78v4
		h82.32v-4c-6.79-0.35-12.29-1.28-16.52-2.78c-4.23-1.5-8.01-3.94-11.34-7.3c-3.69-3.71-6.22-8.41-7.59-14.09
		c-1.37-5.68-2.05-14.49-2.05-26.44V411.53l168.21,205.92h8.03V434.49c0-11.71,0.68-20.44,2.05-26.17
		c1.37-5.74,3.9-10.46,7.59-14.18c6.66-6.72,15.95-10.09,27.86-10.09V380.05z"/>
	<path class="st0" d="M830.89,597.8c-3.8,3.71-8.57,6.61-14.33,8.7c-5.75,2.09-11.83,3.13-18.24,3.13c-8.66,0-16.94-1.85-24.83-5.57
		c-7.89-3.71-14.5-8.81-19.84-15.31c-5.22-6.38-9.34-14.38-12.37-24c-3.02-9.62-4.54-19.48-4.54-29.56c0-2.55,0.24-6.67,0.71-12.35
		H842.1c0-14.61-4.35-26.78-13.04-36.52c-5.6-6.26-12.44-11.04-20.54-14.35c-8.1-3.3-16.9-4.96-26.43-4.96
		c-17.86,0-33.75,5.39-47.68,16.17c-19.17,14.84-28.75,35.3-28.75,61.39c0,19.13,5.06,35.25,15.18,48.35
		c7.26,9.39,16.13,16.35,26.61,20.87c10.47,4.52,23.03,6.78,37.68,6.78c16.9,0,30.44-3.45,40.62-10.35
		c10.18-6.9,16.81-17.13,19.91-30.7l-3.75-1.22C838.83,587.25,835.16,593.74,830.89,597.8z M752.12,483.71
		c7.64-8.58,16.56-12.87,26.75-12.87c6.04,0,11.73,1.65,17.06,4.96c5.33,3.3,9.6,7.8,12.8,13.48c3.55,6.26,5.74,15.19,6.57,26.78
		h-76.79C739.95,503.07,744.48,492.29,752.12,483.71z"/>
	<path class="st0" d="M996.49,576.93c-4.53,13.45-11.61,22.78-21.25,28c-5,2.67-11.9,4.64-20.71,5.91
		c-8.81,1.28-20.06,1.91-33.75,1.91h-24.11l99.64-139.48v-3.65H877.03l-3.75,36.52l3.39,0.35c3.45-9.28,7.08-16.06,10.89-20.35
		c4.04-4.41,8.66-7.48,13.84-9.22c5.18-1.74,12.53-2.61,22.06-2.61h39.11l-99.64,139.65v3.48h133.39l3.75-40L996.49,576.93z"/>
	<path class="st0" d="M417.9,497.49c15.49-17.99,24.03-45.22,14.44-69.07c-0.63-1.49-1.41-2.71-2.29-3.71
		c-4.78-6.82-13.21-11.02-22.55-9.9c-10.7,1.28-19.33,9.79-20.53,20.22c-1.6,13.92,9.55,25.7,23.51,25.7c0.04,0,0.07,0,0.11,0
		c5.78-0.03,10.15,4.87,9.09,10.4c-1.51,7.87-4.62,15.47-8.7,21.39c-6.88,10.63-16.73,18.73-27.96,24.73v-6.06
		c0-8.23-0.48-14.09-1.43-17.57c-1.91-6.84-6.74-12.4-14.49-16.7c-5.37-2.9-12.05-5.28-20.03-7.13c-7.99-1.85-15.68-2.78-23.07-2.78
		c-6.56,0-13.26,0.67-20.12,2c-6.86,1.33-12.61,3.04-17.26,5.13c-8.59,4.06-12.88,9.04-12.88,14.96c0,3.94,1.37,7.22,4.11,9.83
		c2.74,2.61,6.13,3.91,10.18,3.91c6.19,0,10.47-2.72,12.86-8.17l4.47-10.09c1.9-4.29,4.76-7.65,8.57-10.09
		c3.81-2.43,8.15-3.65,13.04-3.65c4.04,0,7.95,0.87,11.7,2.61c3.75,1.74,6.81,4.06,9.2,6.96c5.24,6.26,7.86,16.17,7.86,29.74
		c0,6.38,0.36,16.33,0.36,16.33s-7.01,4.2-20.67,8.27c-12.75,3.8-14.69,4.15-25.05,6.89c-8.81,2.37-15.53,4.71-20.18,7.02
		c-4.64,2.31-8.75,5.4-12.32,9.26c-6.31,6.99-9.46,15.65-9.46,26c0,11.23,3.84,20.14,11.53,26.75c7.69,6.61,18.09,9.92,31.21,9.92
		c10.25,0,19.25-2.09,27-6.26c4.05-2.2,10.07-6.78,18.06-13.74c3.93,6.61,7.75,11.25,11.45,13.91c5.6,4.06,12.64,6.09,21.1,6.09
		c15.36,0,25.18-6.09,29.46-18.26l-3.04-1.74c-2.86,3.83-5.33,6.38-7.41,7.65c-2.08,1.28-4.97,1.91-8.66,1.91
		c-7.74,0-12.62-4.11-14.64-12.35c-0.95-3.94-1.43-11.36-1.43-22.26V525.9C396.11,518.36,408.2,508.84,417.9,497.49z M356.07,561.1
		c0,14.73-1.84,25.97-5.52,33.74c-2.61,5.91-6.5,10.64-11.66,14.17c-5.16,3.54-10.65,5.3-16.46,5.3c-6.65,0-12.14-3.15-16.47-8.52
		c-4.33-5.36-6.5-12.16-6.5-20.39c0-9.6,2.79-18.02,8.37-25.26c2.73-3.49,5.96-6.63,9.57-8.7c3.96-2.27,8.63-4.64,17.71-8.29
		c9.69-3.9,20.95-9.68,20.95-9.68V561.1z"/>
	<path class="st0" d="M482.84,220.77h5.72h5.72c0-29.42,0.55-42.86,0.97-53.09c52.23,32.67,56.24,58.1,80.57,72.15
		c15.88,9.17,32.98,4.35,40.63-8.89c7.65-13.24,3.26-30.47-12.61-39.63c-24.46-14.12-48.64-4.73-103.68-34.2
		c55.04-29.48,79.22-20.08,103.68-34.2c15.88-9.17,20.26-26.39,12.61-39.63c-7.65-13.24-24.75-18.06-40.63-8.89
		c-24.46,14.12-28.38,39.77-81.46,72.71c1.99-62.42,22.22-78.66,22.22-106.91c0-18.33-12.72-30.74-28.02-30.74
		c-15.29,0-28.02,12.41-28.02,30.74c0,28.25,20.23,44.49,22.22,106.91c-53.08-32.94-57-58.58-81.46-72.71
		c-15.88-9.17-32.98-4.35-40.63,8.89c-7.65,13.24-3.26,30.47,12.62,39.63c24.46,14.12,48.64,4.73,103.68,34.2
		c-55.04,29.48-79.22,20.08-103.68,34.2c-15.88,9.17-20.26,26.39-12.62,39.63c7.65,13.24,24.75,18.06,40.63,8.89
		c24.33-14.04,28.34-39.48,80.57-72.15C482.29,177.91,482.84,191.35,482.84,220.77z"/>
	<path class="st0" d="M459.35,275.53c0,16.13,13.08,29.21,29.21,29.21c16.13,0,29.21-13.08,29.21-29.21
		c0-16.13-13.08-29.21-29.21-29.21C472.43,246.32,459.35,259.4,459.35,275.53z"/>
</g>
</svg>
