<?xml version="1.0" encoding="utf-8"?>
<!-- Generator: Adobe Illustrator 27.0.0, SVG Export Plug-In . SVG Version: 6.00 Build 0)  -->
<svg version="1.1" id="레이어_1" xmlns="http://www.w3.org/2000/svg" xmlns:xlink="http://www.w3.org/1999/xlink" x="0px"
	 y="0px" viewBox="0 0 700 650" style="enable-background:new 0 0 700 650;" xml:space="preserve">
<style type="text/css">
	.st0{fill:#65BFC4;}
</style>
<g>
	<g>
		<path class="st0" d="M130.61,485.4c4.61,0.24,8.35,0.87,11.21,1.89c2.87,1.03,5.43,2.68,7.7,4.96c2.5,2.52,4.22,5.71,5.15,9.56
			c0.93,3.86,1.39,9.84,1.39,17.95v85.26L57.62,482.69H10.94v2.72c4.69,0.24,8.47,0.87,11.34,1.89c2.87,1.03,5.4,2.68,7.58,4.96
			c2.5,2.52,4.22,5.73,5.15,9.62c0.93,3.9,1.39,9.82,1.39,17.77v87.15c0,8.03-0.47,13.99-1.39,17.89c-0.93,3.9-2.65,7.11-5.15,9.62
			c-2.26,2.28-4.83,3.94-7.7,4.96c-2.87,1.02-6.61,1.65-11.21,1.89v2.72h55.89v-2.72c-4.61-0.24-8.35-0.87-11.21-1.89
			c-2.87-1.02-5.44-2.67-7.7-4.96c-2.51-2.52-4.23-5.71-5.15-9.57c-0.93-3.86-1.39-9.84-1.39-17.95V504.06l114.21,139.81h5.46
			V519.65c0-7.95,0.46-13.88,1.39-17.77c0.93-3.9,2.65-7.1,5.15-9.62c4.53-4.56,10.83-6.85,18.91-6.85v-2.72h-55.89V485.4z"/>
		<path class="st0" d="M492.59,482.69h-55.89v2.72c4.61,0.24,8.35,0.87,11.21,1.89c2.87,1.03,5.43,2.68,7.7,4.96
			c2.5,2.52,4.22,5.71,5.15,9.56c0.93,3.86,1.39,9.84,1.39,17.95v85.26l-98.45-122.34h-46.68v2.72c4.69,0.24,8.47,0.87,11.34,1.89
			c2.87,1.03,5.4,2.68,7.58,4.96c2.5,2.52,4.22,5.73,5.15,9.62c0.93,3.9,1.39,9.82,1.39,17.77v87.15c0,8.03-0.47,13.99-1.39,17.89
			c-0.93,3.9-2.65,7.11-5.15,9.62c-2.26,2.28-4.83,3.94-7.7,4.96c-2.87,1.02-6.61,1.65-11.21,1.89v2.72h55.89v-2.72
			c-4.61-0.24-8.35-0.87-11.21-1.89c-2.87-1.02-5.44-2.67-7.7-4.96c-2.51-2.52-4.22-5.71-5.15-9.57c-0.93-3.86-1.39-9.84-1.39-17.95
			V504.06l114.21,139.81h5.46V519.65c0-7.95,0.46-13.88,1.39-17.77c0.93-3.9,2.65-7.1,5.15-9.62c4.53-4.56,10.83-6.85,18.91-6.85
			V482.69z"/>
		<path class="st0" d="M575.13,630.53c-2.58,2.52-5.82,4.49-9.73,5.9c-3.91,1.42-8.03,2.13-12.38,2.13c-5.88,0-11.5-1.26-16.86-3.78
			c-5.36-2.52-9.85-5.98-13.47-10.39c-3.55-4.33-6.34-9.76-8.4-16.3c-2.05-6.53-3.08-13.22-3.08-20.07c0-1.73,0.16-4.53,0.49-8.38
			h71.05c0-9.92-2.95-18.19-8.85-24.8c-3.8-4.25-8.45-7.5-13.94-9.74c-5.5-2.24-11.48-3.37-17.94-3.37
			c-12.12,0-22.91,3.66-32.37,10.98c-13.01,10.08-19.52,23.97-19.52,41.68c0,12.99,3.43,23.93,10.3,32.83
			c4.93,6.38,10.95,11.1,18.07,14.17c7.11,3.07,15.64,4.61,25.58,4.61c11.48,0,20.67-2.34,27.58-7.03
			c6.91-4.68,11.42-11.63,13.52-20.84l-2.55-0.83C580.53,623.37,578.03,627.78,575.13,630.53z M521.66,553.07
			c5.19-5.83,11.24-8.74,18.16-8.74c4.1,0,7.96,1.12,11.59,3.37c3.62,2.24,6.52,5.3,8.69,9.15c2.41,4.25,3.9,10.31,4.46,18.18
			h-52.14C513.39,566.22,516.47,558.89,521.66,553.07z"/>
		<path class="st0" d="M687.58,616.36c-3.07,9.13-7.88,15.47-14.43,19.01c-3.39,1.81-8.08,3.15-14.06,4.02
			c-5.98,0.87-13.62,1.3-22.92,1.3H619.8l67.65-94.7v-2.48h-80.99l-2.55,24.8l2.3,0.24c2.34-6.3,4.81-10.9,7.4-13.82
			c2.75-2.99,5.88-5.08,9.4-6.26c3.52-1.18,8.51-1.77,14.98-1.77h26.55l-67.66,94.82v2.36h90.57l2.55-27.16L687.58,616.36z"/>
		<path class="st0" d="M294.73,562.43c10.52-12.22,16.32-30.7,9.8-46.89c-0.43-1.01-0.96-1.84-1.56-2.52
			c-3.24-4.63-8.97-7.48-15.31-6.72c-7.26,0.87-13.12,6.64-13.94,13.73c-1.08,9.45,6.48,17.45,15.97,17.45c0.02,0,0.05,0,0.07,0
			c3.92-0.02,6.89,3.31,6.17,7.06c-1.02,5.34-3.13,10.5-5.91,14.52c-4.67,7.22-11.36,12.72-18.98,16.79v-4.12
			c0-5.59-0.32-9.56-0.97-11.93c-1.3-4.64-4.57-8.42-9.84-11.34c-3.65-1.97-8.18-3.58-13.6-4.84c-5.43-1.26-10.65-1.89-15.67-1.89
			c-4.45,0-9.01,0.45-13.66,1.36c-4.66,0.91-8.56,2.07-11.72,3.48c-5.83,2.76-8.74,6.14-8.74,10.16c0,2.68,0.93,4.9,2.79,6.67
			c1.86,1.77,4.16,2.66,6.91,2.66c4.2,0,7.11-1.85,8.73-5.55l3.03-6.85c1.29-2.91,3.23-5.2,5.82-6.85c2.59-1.65,5.54-2.48,8.85-2.48
			c2.75,0,5.39,0.59,7.94,1.77c2.55,1.18,4.63,2.76,6.24,4.72c3.56,4.25,5.33,10.98,5.33,20.19c0,4.33,0.24,11.09,0.24,11.09
			s-4.76,2.85-14.03,5.61c-8.66,2.58-9.97,2.82-17.01,4.68c-5.98,1.61-10.55,3.2-13.7,4.76c-3.15,1.57-5.94,3.66-8.37,6.29
			c-4.28,4.74-6.42,10.63-6.42,17.66c0,7.62,2.61,13.68,7.83,18.16c5.22,4.49,12.28,6.73,21.19,6.73c6.96,0,13.07-1.42,18.33-4.25
			c2.75-1.49,6.84-4.61,12.26-9.33c2.67,4.49,5.26,7.64,7.77,9.45c3.8,2.75,8.58,4.13,14.33,4.13c10.43,0,17.09-4.13,20.01-12.4
			l-2.06-1.18c-1.94,2.6-3.62,4.33-5.03,5.2c-1.42,0.87-3.38,1.3-5.88,1.3c-5.25,0-8.57-2.79-9.94-8.38
			c-0.65-2.68-0.97-7.71-0.97-15.12v-33.7C279.93,576.6,288.14,570.13,294.73,562.43z M252.75,605.62c0,10-1.25,17.63-3.75,22.91
			c-1.77,4.02-4.41,7.22-7.92,9.62c-3.5,2.4-7.23,3.6-11.18,3.6c-4.51,0-8.24-2.14-11.18-5.78c-2.94-3.64-4.41-8.26-4.41-13.84
			c0-6.52,1.89-12.24,5.68-17.15c1.85-2.37,4.04-4.5,6.5-5.91c2.69-1.54,5.86-3.15,12.02-5.63c6.58-2.65,14.23-6.57,14.23-6.57
			V605.62z"/>
	</g>
	<path class="st0" d="M342.78,287.35h7.69h7.69c0-39.55,0.73-57.63,1.3-71.39c70.23,43.93,75.62,78.12,108.33,97
		c21.35,12.32,44.35,5.85,54.63-11.96c10.28-17.8,4.39-40.96-16.96-53.29c-32.89-18.99-65.4-6.35-139.4-45.99
		c74.01-39.63,106.52-27,139.4-45.99c21.35-12.32,27.24-35.48,16.96-53.29c-10.28-17.8-33.28-24.28-54.63-11.95
		c-32.89,18.99-38.16,53.47-109.53,97.75c2.68-83.93,29.88-105.77,29.88-143.74c0-24.65-17.11-41.33-37.67-41.33
		c-20.56,0-37.67,16.68-37.67,41.33c0,37.98,27.2,59.81,29.87,143.74c-71.37-44.29-76.64-78.76-109.53-97.75
		c-21.34-12.32-44.35-5.85-54.63,11.95c-10.28,17.8-4.38,40.96,16.96,53.29c32.89,18.99,65.4,6.35,139.4,45.99
		c-74.01,39.63-106.52,27-139.4,45.99c-21.35,12.32-27.24,35.48-16.96,53.29c10.28,17.8,33.28,24.28,54.63,11.96
		c32.71-18.88,38.1-53.08,108.33-97C342.04,229.72,342.78,247.8,342.78,287.35z"/>
	<path class="st0" d="M311.2,360.97c0,21.69,17.58,39.27,39.27,39.27c21.69,0,39.27-17.58,39.27-39.27
		c0-21.69-17.58-39.27-39.27-39.27C328.78,321.71,311.2,339.29,311.2,360.97z"/>
</g>
</svg>
