<?xml version="1.0" encoding="UTF-8"?>
<svg id="_레이어_1" data-name="레이어 1" xmlns="http://www.w3.org/2000/svg" viewBox="0 0 768.24 469.46">
  <defs>
    <style>
      .cls-1 {
        fill: #65bfc4;
      }
    </style>
  </defs>
  <path class="cls-1" d="M135.38,287.77c5.21,.27,9.44,.98,12.69,2.14,3.25,1.16,6.15,3.03,8.71,5.61,2.83,2.85,4.78,6.46,5.83,10.82,1.05,4.36,1.58,11.13,1.58,20.31v96.45L52.81,284.7H0v3.07c5.3,.27,9.58,.98,12.82,2.14,3.25,1.16,6.11,3.03,8.57,5.61,2.83,2.85,4.78,6.48,5.83,10.89,1.05,4.41,1.58,11.11,1.58,20.11v98.59c0,9.08-.53,15.83-1.58,20.24-1.05,4.41-3,8.04-5.83,10.89-2.56,2.58-5.47,4.45-8.71,5.61-3.25,1.16-7.48,1.87-12.69,2.14v3.07H63.23v-3.07c-5.21-.27-9.44-.98-12.69-2.14-3.25-1.16-6.15-3.03-8.71-5.61-2.84-2.85-4.78-6.46-5.83-10.82-1.05-4.36-1.58-11.13-1.58-20.31v-116.23l129.21,158.17h6.17v-140.54c0-8.99,.52-15.7,1.58-20.11,1.05-4.41,2.99-8.04,5.83-10.89,5.12-5.16,12.25-7.75,21.4-7.75v-3.07h-63.23v3.07Z"/>
  <path class="cls-1" d="M544.9,284.7h-63.23v3.07c5.21,.27,9.44,.98,12.69,2.14,3.24,1.16,6.15,3.03,8.71,5.61,2.83,2.85,4.78,6.46,5.83,10.82,1.05,4.36,1.58,11.13,1.58,20.31v96.45l-111.38-138.4h-52.81v3.07c5.3,.27,9.58,.98,12.82,2.14,3.24,1.16,6.1,3.03,8.57,5.61,2.83,2.85,4.78,6.48,5.83,10.89,1.05,4.41,1.58,11.11,1.58,20.11v98.59c0,9.08-.53,15.83-1.58,20.24-1.05,4.41-3,8.04-5.83,10.89-2.56,2.58-5.47,4.45-8.71,5.61-3.25,1.16-7.48,1.87-12.69,2.14v3.07h63.23v-3.07c-5.21-.27-9.44-.98-12.69-2.14-3.25-1.16-6.15-3.03-8.71-5.61-2.84-2.85-4.78-6.46-5.83-10.82-1.05-4.36-1.58-11.13-1.58-20.31v-116.23l129.21,158.17h6.17v-140.54c0-8.99,.52-15.7,1.58-20.11,1.05-4.41,2.99-8.04,5.83-10.89,5.12-5.16,12.25-7.75,21.4-7.75v-3.07Z"/>
  <path class="cls-1" d="M638.29,451.96c-2.92,2.85-6.59,5.08-11.01,6.68s-9.09,2.4-14.01,2.4c-6.65,0-13.01-1.42-19.07-4.27-6.06-2.85-11.14-6.77-15.24-11.76-4.01-4.9-7.18-11.04-9.5-18.44-2.32-7.39-3.49-14.96-3.49-22.71,0-1.96,.18-5.12,.55-9.49h80.38c0-11.22-3.34-20.57-10.01-28.05-4.3-4.81-9.56-8.48-15.77-11.02-6.22-2.54-12.99-3.81-20.3-3.81-13.72,0-25.92,4.14-36.62,12.42-14.72,11.4-22.08,27.12-22.08,47.16,0,14.69,3.89,27.08,11.66,37.14,5.58,7.21,12.39,12.56,20.44,16.03,8.04,3.47,17.69,5.21,28.94,5.21,12.98,0,23.39-2.65,31.2-7.95,7.82-5.3,12.91-13.16,15.29-23.58l-2.88-.93c-2.37,6.86-5.2,11.85-8.48,14.96Zm-60.5-87.64c5.87-6.59,12.72-9.89,20.55-9.89,4.64,0,9.01,1.27,13.11,3.81,4.1,2.54,7.37,5.99,9.83,10.35,2.73,4.81,4.41,11.67,5.05,20.57h-58.98c1.09-9.97,4.57-18.26,10.45-24.85Z"/>
  <path class="cls-1" d="M765.5,435.93c-3.48,10.33-8.92,17.5-16.33,21.51-3.84,2.05-9.14,3.56-15.91,4.54-6.77,.98-15.41,1.47-25.93,1.47h-18.52l76.54-107.14v-2.8h-91.62l-2.88,28.05,2.61,.27c2.65-7.12,5.44-12.34,8.37-15.63,3.11-3.38,6.65-5.74,10.63-7.08,3.98-1.34,9.62-2,16.94-2h30.04l-76.54,107.28v2.67h102.46l2.88-30.73-2.74-.4Z"/>
  <path class="cls-1" d="M321.06,374.91c11.9-13.82,18.46-34.73,11.09-53.05-.49-1.14-1.09-2.08-1.76-2.85-3.67-5.24-10.14-8.46-17.32-7.61-8.22,.98-14.85,7.52-15.77,15.53-1.23,10.69,7.33,19.74,18.06,19.74,.03,0,.06,0,.08,0,4.44-.02,7.8,3.74,6.99,7.99-1.16,6.05-3.55,11.88-6.68,16.43-5.29,8.17-12.85,14.39-21.48,18.99v-4.66c0-6.32-.37-10.82-1.1-13.49-1.47-5.25-5.18-9.53-11.13-12.82-4.12-2.22-9.25-4.05-15.39-5.48-6.14-1.42-12.04-2.14-17.72-2.14-5.04,0-10.19,.51-15.45,1.54-5.27,1.03-9.69,2.34-13.26,3.94-6.6,3.12-9.89,6.95-9.89,11.49,0,3.03,1.05,5.54,3.15,7.55,2.1,2,4.71,3.01,7.82,3.01,4.75,0,8.05-2.09,9.88-6.28l3.43-7.75c1.46-3.29,3.66-5.88,6.58-7.75,2.93-1.87,6.26-2.81,10.01-2.81,3.11,0,6.1,.67,8.98,2,2.88,1.34,5.23,3.12,7.06,5.34,4.02,4.81,6.04,12.42,6.04,22.85,0,4.9,.27,12.54,.27,12.54,0,0-5.38,3.22-15.88,6.35-9.79,2.92-11.28,3.19-19.24,5.3-6.77,1.82-11.93,3.62-15.5,5.39-3.57,1.77-6.72,4.14-9.47,7.11-4.85,5.37-7.27,12.02-7.27,19.97,0,8.62,2.95,15.47,8.86,20.55,5.91,5.08,13.9,7.62,23.97,7.62,7.87,0,14.79-1.6,20.74-4.81,3.11-1.69,7.74-5.21,13.87-10.55,3.02,5.08,5.95,8.64,8.79,10.69,4.3,3.12,9.71,4.68,16.21,4.68,11.8,0,19.34-4.68,22.63-14.03l-2.33-1.34c-2.2,2.94-4.09,4.9-5.69,5.88-1.6,.98-3.82,1.47-6.65,1.47-5.95,0-9.69-3.16-11.25-9.49-.73-3.03-1.1-8.73-1.1-17.1v-38.13c10.05-5.79,19.33-13.1,26.78-21.82Zm-47.5,48.86c0,11.31-1.41,19.95-4.24,25.92-2.01,4.54-4.99,8.17-8.96,10.89-3.96,2.72-8.18,4.07-12.65,4.07-5.11,0-9.32-2.42-12.65-6.54-3.33-4.12-4.99-9.34-4.99-15.66,0-7.38,2.14-13.84,6.43-19.4,2.1-2.68,4.57-5.09,7.35-6.68,3.05-1.75,6.63-3.56,13.6-6.37,7.45-3,16.1-7.43,16.1-7.43v21.22Z"/>
  <path class="cls-1" d="M370.94,162.35h8.79c0-22.6,.42-32.92,.74-40.78,40.12,25.1,43.2,44.63,61.89,55.42,12.2,7.04,25.34,3.34,31.21-6.83,5.87-10.17,2.51-23.4-9.69-30.44-18.79-10.85-37.36-3.63-79.64-26.27,42.28-22.64,60.85-15.43,79.64-26.27,12.2-7.04,15.56-20.27,9.69-30.44-5.87-10.17-19.01-13.87-31.21-6.83-18.79,10.85-21.8,30.55-62.58,55.85,1.53-47.95,17.07-60.43,17.07-82.12,0-14.08-9.77-23.61-21.52-23.61s-21.52,9.53-21.52,23.61c0,21.7,15.54,34.17,17.07,82.12-40.78-25.3-43.78-45-62.58-55.85-12.19-7.04-25.34-3.34-31.21,6.83-5.87,10.17-2.5,23.4,9.69,30.44,18.79,10.85,37.36,3.63,79.64,26.27-42.28,22.64-60.85,15.43-79.64,26.27-12.2,7.04-15.56,20.27-9.69,30.44,5.87,10.17,19.02,13.87,31.21,6.83,18.69-10.79,21.77-30.32,61.89-55.42,.32,7.86,.74,18.19,.74,40.78Z"/>
  <path class="cls-1" d="M352.9,204.41c0,12.39,10.04,22.43,22.43,22.43s22.43-10.04,22.43-22.43-10.04-22.43-22.43-22.43-22.43,10.04-22.43,22.43Z"/>
</svg>