<?xml version="1.0" encoding="utf-8"?>
<!-- Generator: Adobe Illustrator 27.0.0, SVG Export Plug-In . SVG Version: 6.00 Build 0)  -->
<svg version="1.1" id="레이어_1" xmlns="http://www.w3.org/2000/svg" xmlns:xlink="http://www.w3.org/1999/xlink" x="0px"
	 y="0px" viewBox="0 0 1000 620" style="enable-background:new 0 0 1000 620;" xml:space="preserve">
<style type="text/css">
	.st0{fill:#65BFC4;}
</style>
<g>
	<path class="st0" d="M488.78,439h11.54h11.54c0-59.33,1.1-86.44,1.95-107.08C619.15,397.81,627.24,449.1,676.3,477.43
		c32.02,18.49,66.52,8.77,81.94-17.93c15.42-26.71,6.58-61.44-25.44-79.93c-49.33-28.48-98.09-9.53-209.1-68.98
		c111.01-59.45,159.78-40.5,209.1-68.98c32.02-18.49,40.86-53.22,25.44-79.93c-15.42-26.71-49.92-36.42-81.94-17.93
		c-49.34,28.49-57.23,80.2-164.29,146.63c4.01-125.89,44.81-158.65,44.81-215.61c0-36.97-25.66-62-56.5-62s-56.5,25.03-56.5,62
		c0,56.96,40.8,89.72,44.81,215.61c-107.06-66.43-114.95-118.15-164.29-146.63c-32.02-18.49-66.52-8.77-81.94,17.93
		c-15.42,26.71-6.58,61.44,25.44,79.93c49.33,28.48,98.09,9.53,209.1,68.98c-111.01,59.45-159.78,40.5-209.1,68.98
		c-32.02,18.49-40.86,53.22-25.44,79.93c15.42,26.71,49.93,36.42,81.94,17.93c49.06-28.32,57.15-79.61,162.49-145.51
		C487.68,352.56,488.78,379.67,488.78,439z"/>
	<path class="st0" d="M441.42,549.43c0,32.53,26.37,58.9,58.9,58.9c32.53,0,58.9-26.37,58.9-58.9c0-32.53-26.37-58.9-58.9-58.9
		C467.79,490.53,441.42,516.9,441.42,549.43z"/>
</g>
</svg>
